<svg xmlns="http://www.w3.org/2000/svg" viewBox="0 0 3050 1300">
  <symbol id="qahiri" viewBox="0 0 865 650">
    <path class="f" d="M133 407 v-87q-10 17-28 22-18 5-38 5-28 0-47 15t-20 45q0 24 20 42 19 18 47 18 6 0 13 0v166l53-13v-53-74-86m-66-14q5 0 9 4t4 10-4 9-9 4-10-4-4-9 4-10 10-4m173 73v1h53v-60-87q-10 17-28 22-18 5-38 5-28 0-47 17t-20 43q0 30 20 45t47 15q7 0 13-1m-13-46q-6 0-10-4t-4-9 4-10 10-4 9 4 4 10-4 9-9 4m93 60l53-13v-60q0-6 4-10t10-4 9 4 4 10v73l53-13v-60q0-26-19-43-20-17-47-17-7 0-14-1v-253l-53 14v373m213-67v-80l-53 14v66q0 25 16 39t35 15q16 0 30-9t26-25q-11 5-22 5-12 0-22-6t-10-19m-53-92l53-14v-13l-53 14v13m211 79l40-32q-9-9-22-15t-29-6q-20 0-38-5t-29-22v160l54-13v-60q0-6 4-10t9-4q8 0 11 7m120 13v-80l-53 14v66q0 25 16 39t35 15q16 0 30-9t26-25q-11 5-22 5-12 0-22-6t-10-19m-53-92l53-14v-13l-53 14v13" />
  </symbol>
  <use x="0" y="0" width="865" height="650" href="#qahiri" />
  <view id="view_qahiri" viewBox="0 0 865 650" />
  <rect x="0" y="0" width="865" height="650" fill="none"/>

  <symbol id="quando" viewBox="992.1 0 2012 650">
    <path class="f" d="M1073 541 q-21 0-21-21 0-21 40-33 106-29 152-72 50-46 50-129 0-44-9-70t-17-40-22-27q-29-23-73-23-85 0-110 86-8 30-8 71 0 95 49 125 12 7 28 9 6 2 8 7 4 10 2 14-7 6-26 6t-35-7-31-15-24-24-19-29q-15-34-15-72t8-67 22-52 32-40 40-28q43-22 85-22t73 12 54 36q50 50 50 132 0 120-89 182-37 26-88 41l23 9q44 17 68 17 56 0 78-27 8 0 12 6t4 15-6 21-19 20q-26 18-64 18-25 0-48-9t-37-15l-26-12q-29-12-42-12t-20 2-13 4q-6 3-16 13m357-148v-144q0-14-2-22t-9-8q-4 0-7 1l-6 2q-2 1-4-2-5-5-5-9t3-9 9-11 13-11q16-11 30-11t19 5 8 12q5 12 5 37v153q0 41 25 46 8 1 18 1t22-2 23-8q21-8 37-21v-143q0-23-9-28-3-2-9-2t-9 1-5 3-4 0-3-3q-3-4-3-8t3-9 10-11 15-11q20-12 40-12 24 0 27 34 1 9 1 20v144q0 38 3 47t7 12 10 3 10-2l8-3q3-1 5 3 5 7 2 14t-12 11-17 10q-42 19-60-1-9-10-10-31-36 27-74 38-14 3-29 3t-29-4-25-13q-22-20-22-61m486 43q-35 35-86 35-39 0-63-22-23-23-23-59 0-45 40-67 36-21 102-21h30q0-9 0-18v-18q0-33-9-46-11-16-37-16-59 0-61 43 0 7 0 11-4 4-16 4t-17-3-9-7q-8-10-8-24t8-26 24-19q29-14 69-14t59 8 32 20q20 23 20 60l-2 118q0 32 3 40t7 12 11 3 10-2l7-4q3-1 6 3t2 7-2 8-10 11-16 9q-48 23-66-10-3-7-5-16m-1-32q0-35 1-70-51 2-69 6t-26 9-13 10q-8 9-8 28t14 29 37 12q35 0 64-24m264 64q-5-1-15-1h-78q-24 0-30-9-3-3-3-7 0-10 4-15 6 2 13 2t12-6 3-23v-160q0-23-8-28-4-2-9-2t-9 1-6 3-3 0-3-3q-4-4-4-8t3-9 10-11 16-11q19-12 39-12 23 0 27 30 1 9 2 18 36-30 79-43 15-5 31-5t30 4 25 14q22 19 22 61v165q1 19 14 24 4 1 9 2t10 2 6 3q5 3 5 10 0 9-4 14-5-1-16-1h-78q-23 0-30-9-3-3-3-7 0-10 4-15 6 2 11 2t9-2 5-4q3-6 3-23v-144q0-42-24-46-8-2-19-2t-25 4-26 8q-23 11-38 26v158q0 19 13 24 4 1 10 2t9 2 7 3q4 3 4 10 0 9-4 14m426-32q-37 36-83 36-50 0-81-35-35-37-35-103 0-75 48-122 44-43 104-43 24 0 47 8v-70q0-18-4-22-5-8-18-8-5 0-11 1t-7 0-3-3q-5-8 12-20 27-20 53-20 27 0 31 30 1 9 1 19v283q0 38 3 47t7 12 10 3 10-2l8-3q3-1 5 3 5 7 2 14t-11 11-17 10q-39 18-59 1-9-9-12-27m0-36v-173q-24-19-56-19-38 0-62 28-25 30-25 82 0 82 47 102 14 6 28 6t23-3 18-5q16-8 27-18m137-68q0-30 5-54t17-41 24-31 30-21q31-16 68-16 47 0 80 35 37 38 37 100 0 82-44 128-39 39-93 39-57 0-91-40-33-38-33-99m138 99q16 0 29-7t22-21q18-28 18-73 0-48-19-83-21-39-61-39-33 0-52 25-21 26-21 74 0 59 26 93 23 31 58 31" />
  </symbol>
  <use x="992.1" y="0" width="2012" height="650" href="#quando" />
  <view id="view_quando" viewBox="992.1 0 2012 650" />
  <rect x="992.1 " y="0" width="2012" height="650" fill="none" />
  
  
<path id="quantico" d="M 250 800 h-163v265h163v-265m-7 408l-55-98h-93l-58-33v-288l58-34h147l58 34v288l-58 33 56 98h-55m200-98l-58-33v-219h48v209h116v-209h48v252h-36l-12-20-36 20h-70m373-105h-100v62h100v-62m-35 105h-56l-58-33v-82l58-33h91v-61h-124v-43h115l58 33v219h-13l-36-20-35 20m318-255l58 34v219h-48v-209h-116v209h-48v-253h36l12 21 36-21h70m164 46h-46v-43h46v-42l49-28v70h60v43h-60v163h60v44h-51l-58-34v-173m179-43h48v250h-48v-250m51-62h-54v-53h54v53m265 105h-139v163h139v44h-130l-58-34v-183l58-33h130v43m282-12v188l-58 33h-96l-58-33v-188l58-34h96l58 34m-48 10h-116v168h116v-168"/>
<view id="view_quantico" viewBox="30 650 2012 650"/>
<rect x="30 " y="650" width="2012" height="650"  fill="none" />
</svg>
